<?xml version="1.0" encoding="UTF-8" standalone="no"?>
<!-- Created with Inkscape (http://www.inkscape.org/) -->

<svg
   version="1.1"
   id="svg182"
   width="251"
   height="220"
   viewBox="0 0 251 220"
   sodipodi:docname="Vectorize.svg"
   inkscape:version="1.2 (dc2aedaf03, 2022-05-15)"
   xmlns:inkscape="http://www.inkscape.org/namespaces/inkscape"
   xmlns:sodipodi="http://sodipodi.sourceforge.net/DTD/sodipodi-0.dtd"
   xmlns="http://www.w3.org/2000/svg"
   xmlns:svg="http://www.w3.org/2000/svg">
  <defs
     id="defs186" />
  <sodipodi:namedview
     id="namedview184"
     pagecolor="#ffffff"
     bordercolor="#000000"
     borderopacity="0.25"
     inkscape:showpageshadow="2"
     inkscape:pageopacity="0.0"
     inkscape:pagecheckerboard="0"
     inkscape:deskcolor="#d1d1d1"
     showgrid="false"
     inkscape:zoom="1.0226415"
     inkscape:cx="117.34317"
     inkscape:cy="142.76753"
     inkscape:window-width="1366"
     inkscape:window-height="745"
     inkscape:window-x="-8"
     inkscape:window-y="-8"
     inkscape:window-maximized="1"
     inkscape:current-layer="g188" />
  <g
     inkscape:groupmode="layer"
     inkscape:label="Image"
     id="g188">
    <path
       style="fill:#111111;stroke:none"
       d="m 55.491973,17.626799 c -7.4264,1.3366 -14.6939,4.3063 -21,8.4005 -50.10907,32.532803 -17.2184,112.807001 41.000004,102.520001 8.1881,-1.447 16.1783,-4.312 23.000003,-9.173 48.16,-34.313998 15.083,-112.2011012 -43.000007,-101.747501 m 120.000007,-8e-4 c -7.786,1.3757 -15.471,4.2609 -22,8.757 -48.498,33.398203 -16.997,111.469301 41,102.340301 7.845,-1.235 15.35,-4.109 22,-8.426 50.28999,-32.649998 17.64,-113.0328012 -41,-102.671301 m -116.000007,9.8365 c 47.249007,-6.7508 71.300007,57.527803 32.000004,83.950801 -6.2957,4.233 -13.5075,6.486 -21,7.46 C 12.719673,126.3773 1.5246127,35.744599 59.491973,27.462499 m 120.000007,-0.0108 c 47.666,-6.2096 71.443,59.609603 30,84.783601 -5.742,3.488 -12.339,5.77 -19,6.638 -58.176,7.578 -69.594,-83.788501 -11,-91.421601 m -128.000007,23.7106 c -10.2794,10.410403 -0.6541,13.554003 6,23.000003 -10.2649,5.002 -14.1317,12.765 -6,21 h 1 l 14.000004,-11.369 13,11.369 h 1 c 1.2641,-1.28 2.7946,-2.588 3.8773,-4.045 6.2956,-8.467 -7.8217,-10.456 -7.8217,-17.955 0,-8.599 16.2057,-10.4347 5.9691,-19.683603 -1.2586,-1.1372 -2.5202,-1.6142 -4.0247,-2.3164 l -13,10.944403 -14.000004,-10.944403 m 120.000007,0 -8,8.000003 v 1 l 10.944,13 -10.944,13 v 1 l 8,8 h 1 l 13,-10.944 13,10.944 h 1 l 8,-8 v -1 l -10.944,-13 10.944,-13 v -1 l -8,-8.000003 h -1 l -13,10.944403 -14,-10.944403 M 65.491977,160.1623 v 7 h 80.000003 c 0,8.745 -2.476,22.039 1.688,29.96 6.291,11.965 28.322,11.735 35.584,1 6.191,-9.151 2.728,-27.363 2.728,-37.96 H 65.491977 m 97.000003,7 c 0,3.316 -1.944,20.03 3.961,19.079 5.148,-0.829 3.039,-15.347 3.039,-19.079 h 10 v 18 c -0.005,12.932 -14.781,22.472 -25.697,11.606 -3.871,-3.854 -6.437,-24.826 -1.7,-28.578 2.448,-1.939 7.47,-1.028 10.397,-1.028 z"
       id="path300" />
  </g>
</svg>
